<?xml version="1.0" encoding="UTF-8"?>
<svg width="100%" height="140px" preserveAspectRatio="none meet" viewBox="0 0 940 140" version="1.1" xmlns="http://www.w3.org/2000/svg" xmlns:xlink="http://www.w3.org/1999/xlink">
    <title>illus/banner</title>
    <defs>
        <rect id="path-1" x="0" y="0" width="940" height="140"></rect>
        <linearGradient x1="26.0138248%" y1="48.2861424%" x2="106.138068%" y2="48.6360771%" id="linearGradient-3">
            <stop stop-color="#81C6EF" offset="0%"></stop>
            <stop stop-color="#4076E6" offset="100%"></stop>
        </linearGradient>
        <rect id="path-4" x="0" y="0" width="169" height="87" rx="6.60000026"></rect>
        <filter x="-6.2%" y="-8.6%" width="112.4%" height="124.1%" filterUnits="objectBoundingBox" id="filter-5">
            <feOffset dx="0" dy="3" in="SourceAlpha" result="shadowOffsetOuter1"></feOffset>
            <feGaussianBlur stdDeviation="3" in="shadowOffsetOuter1" result="shadowBlurOuter1"></feGaussianBlur>
            <feColorMatrix values="0 0 0 0 0   0 0 0 0 0   0 0 0 0 0  0 0 0 0.13833042 0" type="matrix" in="shadowBlurOuter1"></feColorMatrix>
        </filter>
        <rect id="path-6" x="2.84217094e-14" y="5.32907052e-15" width="32.9634146" height="26.5" rx="3"></rect>
        <filter x="-100.1%" y="-79.2%" width="263.8%" height="303.8%" filterUnits="objectBoundingBox" id="filter-7">
            <feOffset dx="-6" dy="6" in="SourceAlpha" result="shadowOffsetOuter1"></feOffset>
            <feGaussianBlur stdDeviation="8" in="shadowOffsetOuter1" result="shadowBlurOuter1"></feGaussianBlur>
            <feColorMatrix values="0 0 0 0 0.415686275   0 0 0 0 0.458823529   0 0 0 0 0.792156863  0 0 0 0.365739729 0" type="matrix" in="shadowBlurOuter1"></feColorMatrix>
        </filter>
        <rect id="path-8" x="0" y="0" width="51" height="41" rx="3"></rect>
        <filter x="-64.7%" y="-51.2%" width="205.9%" height="231.7%" filterUnits="objectBoundingBox" id="filter-9">
            <feOffset dx="-6" dy="6" in="SourceAlpha" result="shadowOffsetOuter1"></feOffset>
            <feGaussianBlur stdDeviation="8" in="shadowOffsetOuter1" result="shadowBlurOuter1"></feGaussianBlur>
            <feColorMatrix values="0 0 0 0 0.415686275   0 0 0 0 0.458823529   0 0 0 0 0.792156863  0 0 0 0.365739729 0" type="matrix" in="shadowBlurOuter1"></feColorMatrix>
        </filter>
        <filter x="-27.0%" y="-22.8%" width="154.1%" height="145.5%" filterUnits="objectBoundingBox" id="filter-10">
            <feGaussianBlur stdDeviation="12" in="SourceGraphic"></feGaussianBlur>
        </filter>
        <linearGradient x1="48.8784262%" y1="9.83611205%" x2="50%" y2="100%" id="linearGradient-11">
            <stop stop-color="#3295CE" offset="0%"></stop>
            <stop stop-color="#2873AB" offset="100%"></stop>
        </linearGradient>
        <polygon id="path-12" points="2.84217099e-15 0 14.5019851 50.8907644 25.0827833 88.4000013 32.8000005 88.4000013 21.5563899 0"></polygon>
        <linearGradient x1="48.0467215%" y1="9.83611205%" x2="50%" y2="100%" id="linearGradient-14">
            <stop stop-color="#3295CE" offset="0%"></stop>
            <stop stop-color="#2873AB" offset="100%"></stop>
        </linearGradient>
        <linearGradient x1="76.6328318%" y1="13.9878472%" x2="17.0239755%" y2="73.8323316%" id="linearGradient-15">
            <stop stop-color="#FBA99B" offset="0%"></stop>
            <stop stop-color="#F6769A" offset="100%"></stop>
        </linearGradient>
        <linearGradient x1="67.7586959%" y1="6.65911709%" x2="50%" y2="93.3408829%" id="linearGradient-16">
            <stop stop-color="#3CA1D5" offset="0%"></stop>
            <stop stop-color="#0A5D92" offset="100%"></stop>
        </linearGradient>
        <linearGradient x1="61.9613271%" y1="0%" x2="50%" y2="100%" id="linearGradient-17">
            <stop stop-color="#3CA1D5" offset="0%"></stop>
            <stop stop-color="#0A5D92" offset="100%"></stop>
        </linearGradient>
        <path d="M39.3945598,-6.18172183e-14 C47.3195698,27.0147795 49.5043548,45.0147795 45.9489147,54 L45.9489147,54 L18.4000003,54 C18.8358675,47.4251403 20.2334609,40.4719721 22.1477125,33.6925241 C15.9086674,44.9469562 10.6644245,53.0493232 6.41497817,58 L2.84217077e-15,56.7435288 C4.13223715,31.1162693 16.0986445,12.2017597 35.8992219,-1.00897069e-13 Z" id="path-18"></path>
        <filter x="-37.1%" y="-22.3%" width="174.2%" height="144.7%" filterUnits="objectBoundingBox" id="filter-20">
            <feGaussianBlur stdDeviation="12" in="SourceGraphic"></feGaussianBlur>
        </filter>
        <linearGradient x1="50%" y1="0%" x2="50%" y2="100%" id="linearGradient-21">
            <stop stop-color="#0868A8" offset="0%"></stop>
            <stop stop-color="#0A70B0" offset="100%"></stop>
        </linearGradient>
        <linearGradient x1="50%" y1="0%" x2="50%" y2="100%" id="linearGradient-22">
            <stop stop-color="#2298E0" offset="0%"></stop>
            <stop stop-color="#004A7C" offset="100%"></stop>
        </linearGradient>
        <filter x="-44.3%" y="-21.7%" width="188.5%" height="143.4%" filterUnits="objectBoundingBox" id="filter-23">
            <feGaussianBlur stdDeviation="12" in="SourceGraphic"></feGaussianBlur>
        </filter>
        <linearGradient x1="50%" y1="0%" x2="50%" y2="100%" id="linearGradient-24">
            <stop stop-color="#F8D2D1" offset="0%"></stop>
            <stop stop-color="#FFB1B8" offset="100%"></stop>
        </linearGradient>
        <linearGradient x1="50%" y1="0%" x2="50%" y2="100%" id="linearGradient-25">
            <stop stop-color="#F8D2D1" offset="0%"></stop>
            <stop stop-color="#FFB1B8" offset="100%"></stop>
        </linearGradient>
        <linearGradient x1="50%" y1="0%" x2="50%" y2="100%" id="linearGradient-26">
            <stop stop-color="#F8D2D1" offset="0%"></stop>
            <stop stop-color="#FFB1B8" offset="100%"></stop>
        </linearGradient>
        <linearGradient x1="50%" y1="0%" x2="50%" y2="100%" id="linearGradient-27">
            <stop stop-color="#2298E0" offset="0%"></stop>
            <stop stop-color="#004A7C" offset="100%"></stop>
        </linearGradient>
        <linearGradient x1="50%" y1="0%" x2="50%" y2="100%" id="linearGradient-28">
            <stop stop-color="#2298E0" offset="0%"></stop>
            <stop stop-color="#004A7C" offset="100%"></stop>
        </linearGradient>
        <linearGradient x1="50%" y1="0%" x2="50%" y2="100%" id="linearGradient-29">
            <stop stop-color="#F8D2D1" offset="0%"></stop>
            <stop stop-color="#FFB1B8" offset="100%"></stop>
        </linearGradient>
        <linearGradient x1="-11.995777%" y1="-30.9062051%" x2="17.7975297%" y2="72.3708041%" id="linearGradient-30">
            <stop stop-color="#F99798" offset="0%"></stop>
            <stop stop-color="#F46195" offset="100%"></stop>
        </linearGradient>
        <linearGradient x1="56.1935491%" y1="13.9211892%" x2="17.7975297%" y2="94.7616926%" id="linearGradient-31">
            <stop stop-color="#F99798" offset="0%"></stop>
            <stop stop-color="#F46195" offset="100%"></stop>
        </linearGradient>
    </defs>
    <g id="illus/banner" stroke="none" stroke-width="1" fill="none" fill-rule="evenodd">
        <g id="Group-2">
            <mask id="mask-2" fill="white">
                <use xlink:href="#path-1"></use>
            </mask>
            <use id="Rectangle" fill="#FFFFFF" xlink:href="#path-1"></use>
            <g id="bg" mask="url(#mask-2)">
                <g transform="translate(122.072591, -1.000000)">
                    <path d="M347.927409,61.5429688 C378.923622,83.8499596 402.50889,110.335637 418.683212,141 L817.927409,141 L817.927409,1 L212.927409,1 C271.931195,19.0549883 316.931195,39.2359779 347.927409,61.5429688 Z" id="Path-45" fill="url(#linearGradient-3)"></path>
                    <path d="M419.753223,141.000001 C526.788195,169.532164 582.736409,167.609271 587.597866,135.231321 C594.890052,86.6643953 660.266983,152.604282 696.296033,141.000001 C715.393964,134.848914 747.735384,102.511546 754.273371,47.1373253 C755.396574,37.6242295 750.156526,22.2451213 738.553228,1.00000066 C160.728466,1.00000066 -78.0400411,1.00000066 22.2477074,1.00000066 C172.67933,1.00000066 282.576263,38.5950893 338.756165,71.0000007 C376.209433,92.603274 403.208453,115.936607 419.753223,141.000001 Z" id="Path-46" fill="#EAACFF" opacity="0.300000012"></path>
                    <path d="M457.175313,71 C522.884342,105.987354 595.515287,99.0002533 645.300133,71 C661.153154,62.083861 679.151204,38.7505276 699.294284,1 L110.530447,0 C297.821006,24.0084308 413.369295,47.6750974 457.175313,71 Z" id="Path-46" fill="#EAACFF" opacity="0.300000012"></path>
                </g>
            </g>
            <g id="window" mask="url(#mask-2)">
                <g transform="translate(637.500000, 20.000000)">
                    <g id="Rectangle" stroke="none" fill="none">
                        <use fill="black" fill-opacity="1" filter="url(#filter-5)" xlink:href="#path-4"></use>
                        <use fill="#FAEFFF" fill-rule="evenodd" xlink:href="#path-4"></use>
                    </g>
                    <path d="M6.60000026,0 L39.6983917,0 L39.6983917,0 L39.6983917,87 L6.60000026,87 C2.95492077,87 -1.14128623e-13,84.0450792 -1.13686838e-13,80.3999997 L-1.13686838e-13,6.60000026 C-1.1502141e-13,2.95492077 2.95492077,-2.1858818e-16 6.60000026,0 Z" id="Rectangle" stroke="none" fill="#F6E4FF" fill-rule="evenodd"></path>
                    <g id="Group" stroke="none" stroke-width="1" fill="none" fill-rule="evenodd" transform="translate(69.000000, 25.500000)">
                        <path d="M31,25.2 C31,31.1646753 26.195671,36 20.2692308,36 L0,36 L0,28.8 L20.2692308,28.8 C22.2447108,28.8 23.8461538,27.1882251 23.8461538,25.2 C23.8461538,23.2117749 22.2447108,21.6 20.2692308,21.6 L13.1153846,21.6 L13.1153846,14.4 L20.2692308,14.4 C22.2447108,14.4 23.8461538,12.7882251 23.8461538,10.8 C23.8461538,8.8117749 22.2447108,7.2 20.2692308,7.2 L0,7.2 L0,0 L20.2692308,0 C26.195671,0 31,4.8353247 31,10.8 C31,13.566076 29.966793,16.0892766 28.2676117,18 C29.966793,19.9107234 31,22.433924 31,25.2 Z" id="Path" fill="#FE815F" opacity="0.800000012"></path>
                        <path d="M0,28.8 L17.8459662,28.8 C14.0552421,33.1720081 8.01995409,36 1.22222222,36 C0.811928586,36 0.404412547,35.9896976 0,35.969375 L0,28.8 L0,28.8 Z M21.5843692,21.6 L14.6666667,21.6 L14.6666667,14.4 L21.5843692,14.4 C21.8569231,15.5631958 22,16.767123 22,18 C22,19.232877 21.8569231,20.4368042 21.5843692,21.6 Z M17.8459662,7.2 L1.29318778e-12,7.2 L1.29318778e-12,0.0306249642 C0.404412547,0.0103024297 0.811928586,0 1.22222222,0 C8.01995409,0 14.0552421,2.82799187 17.8459662,7.2 L17.8459662,7.2 Z" id="Shape" fill="#000000" fill-rule="nonzero" opacity="0.119999997"></path>
                        <path d="M0,0 C9.9411255,0 18,8.0588745 18,18 C18,27.9411255 9.9411255,36 0,36 L0,28.8 C5.9646753,28.8 10.8,23.9646753 10.8,18 C10.8,12.0353247 5.9646753,7.2 0,7.2 L0,0 Z" id="Path" fill="#FF6238" fill-rule="nonzero"></path>
                    </g>
                    <line x1="20.6104793" y1="6.5" x2="22.7610827" y2="6.5" id="Line-3" stroke="#5089FF" stroke-width="4" fill="none" stroke-linecap="round"></line>
                    <line x1="31.1574208" y1="6.5" x2="32.830123" y2="6.5" id="Line-3" stroke="#5089FF" stroke-width="4" fill="none" opacity="0.600000024" stroke-linecap="round"></line>
                </g>
            </g>
            <g id="dai" mask="url(#mask-2)">
                <g transform="translate(744.000000, 93.500000)">
                    <g id="Rectangle" fill="none" opacity="0.900000036">
                        <use fill="black" fill-opacity="1" filter="url(#filter-7)" xlink:href="#path-6"></use>
                        <use fill="#E8E9FF" fill-rule="evenodd" xlink:href="#path-6"></use>
                    </g>
                    <path d="M16.2400265,5.26176946 C20.2673896,5.26176946 23.5322124,8.52659229 23.5322124,12.5539553 C23.5322124,16.5813184 20.2673896,19.8461412 16.2400265,19.8461412 C12.2126634,19.8461412 8.94784062,16.5813184 8.94784062,12.5539553 C8.94784062,8.52659229 12.2126634,5.26176946 16.2400265,5.26176946 Z M16.3881681,9.04183362 L13.4150872,9.04183362 L13.4143501,11.3398336 L12.4903501,11.3402494 L12.4903501,12.3402494 L13.4143501,12.3398336 L13.4143501,12.9698336 L12.4903501,12.9703098 L12.4903501,13.9703098 L13.4143501,13.9698336 L13.4150872,16.0660771 L16.3881681,16.0660771 C17.8236936,16.0660771 19.0580639,15.2048294 19.6027583,13.970855 L19.6027583,13.970855 L20.577012,13.9703098 L20.577012,12.9703098 L19.8758025,12.9708695 C19.8919728,12.8341497 19.9002898,12.6950238 19.9002898,12.5539553 C19.9002898,12.4821527 19.8981351,12.4108534 19.8938869,12.3401184 L19.8938869,12.3401184 L20.577012,12.3402494 L20.577012,11.3402494 L19.6847323,11.3397192 C19.1905176,9.99840578 17.9010525,9.04183362 16.3881681,9.04183362 L16.3881681,9.04183362 Z M18.6662493,13.9706318 C18.1926863,14.7305326 17.3494849,15.2362445 16.3881681,15.2362445 L16.3881681,15.2362445 L14.2449197,15.2362445 L14.2443501,13.9698336 Z M19.0620552,12.3400835 C19.0676214,12.4106413 19.0704573,12.4819671 19.0704573,12.5539553 C19.0704573,12.6957016 19.0594623,12.8348799 19.0382788,12.9706838 L19.0382788,12.9706838 L14.2443501,12.9698336 L14.2443501,12.3398336 Z M16.3881681,9.87166615 C17.4324705,9.87166615 18.3373848,10.4684578 18.7804648,11.3395951 L18.7804648,11.3395951 L14.2443501,11.3398336 L14.2449197,9.87166615 Z" id="Combined-Shape" fill="#FAB01E" fill-rule="evenodd" opacity="0.600000024"></path>
                </g>
            </g>
            <g id="eth" mask="url(#mask-2)">
                <g transform="translate(781.000000, 10.000000)">
                    <g id="Rectangle" opacity="0.800000012">
                        <use fill="black" fill-opacity="1" filter="url(#filter-9)" xlink:href="#path-8"></use>
                        <use fill="#FFFFFF" fill-rule="evenodd" xlink:href="#path-8"></use>
                    </g>
                    <g id="coin/eth" opacity="0.600000024" transform="translate(12.690119, 8.683058)" fill-rule="evenodd" stroke-width="1">
                        <g id="ethereum-1" transform="translate(5.082714, 0.000000)">
                            <polygon id="Path" fill="#343434" fill-rule="nonzero" points="7.253392 0 7.09495911 0.538501762 7.09495911 16.1645758 7.253392 16.3227253 14.5068407 12.035231"></polygon>
                            <polygon id="Path" fill="#8C8C8C" fill-rule="nonzero" points="7.25344868 0 0 12.035231 7.25344868 16.322782 7.25344868 8.73835312"></polygon>
                            <polygon id="Path" fill="#3C3C3B" fill-rule="nonzero" points="7.253392 17.6961315 7.16411407 17.8049656 7.16411407 23.3713166 7.253392 23.6320648 14.5112054 13.4107912"></polygon>
                            <polygon id="Path" fill="#8C8C8C" fill-rule="nonzero" points="7.25344868 23.6320081 7.25344868 17.6960182 0 13.4106778"></polygon>
                            <polygon id="Path" fill="#141414" fill-rule="nonzero" points="7.253392 16.3227253 14.5067273 12.0352876 7.253392 8.7384098"></polygon>
                            <polygon id="Path" fill="#393939" fill-rule="nonzero" points="0 12.035231 7.25333531 16.3227253 7.25333531 8.73835312"></polygon>
                        </g>
                    </g>
                </g>
            </g>
            <g id="people" mask="url(#mask-2)">
                <g transform="translate(508.000000, -8.000000)">
                    <g id="man" transform="translate(90.119556, 96.716383) rotate(-10.000000) translate(-90.119556, -96.716383) translate(13.619556, 12.716383)">
                        <path d="M58.9524967,10.0759824 C61.5767534,10.7255407 63.8238762,11.9130279 64.4208382,12.5014311 C64.2370734,13.6616765 64.0092831,14.4296242 63.4105697,14.8495183 C63.4524399,14.9430202 63.4897841,15.0378313 63.5229595,15.1330253 C64.3340189,17.4602924 64.2354722,21.3418202 63.5457007,24.6643768 L63.4560105,24.6440335 C64.2031879,24.7623748 63.888273,25.6709761 63.2832042,26.2857866 C63.2379495,26.3317699 63.1797263,26.3755252 63.1111532,26.4177391 C62.7954157,27.4884952 62.4153768,28.441776 61.9834249,29.187088 L61.9267613,29.6268188 C61.8046134,30.4617576 61.5376086,31.3828738 60.3931241,31.2016052 C59.0568833,30.9899655 55.6061637,30.0068932 54.499305,28.1672474 L54.1329569,27.8653523 L54.1329569,27.8653523 L54.0764407,31.2393805 L55.7119632,31.4958882 C55.7119632,32.1474675 55.7257612,32.7928908 55.7524207,33.4323437 C62.1514972,41.4734423 65.1317618,56.6884999 69.781032,58.8405947 C74.5278774,61.037856 81.2568825,58.9115965 89.2553717,56.0405947 L89.4534407,56.4853805 L93.3092689,54.793266 C93.9230363,54.1816548 94.5317061,53.6055207 95.1352782,53.0648636 L88.8377911,49.9028091 L109.186206,18.7666363 L133.521252,33.0478167 L113.860582,62.4744815 L101.863531,56.4466876 C101.62757,57.1090485 99.1058726,57.8817349 94.2984387,58.7647468 L91.4504407,60.9463805 L91.704859,61.5134317 C85.8514279,67.8460962 74.6687322,73.3873859 67.259745,73.322523 L67.2895913,73.5896516 C67.3777574,74.5393718 67.2749888,75.609415 66.3568055,75.7047295 L66.220022,75.7115968 L64.0294407,75.7113805 L74.6624407,159.311381 L74.8154418,159.311598 C78.7984832,162.111598 83.9984832,164.378265 90.4154407,166.111598 L90.4154407,167.711598 L75.2154418,167.711598 L70.0154417,166.911598 L70.0154417,167.711598 L66.0154417,167.711598 L66.4154407,159.311598 L66.7584407,159.311381 L56.5174264,123.002361 L52.5035105,108.919164 L51.9982013,110.403432 C51.2769,112.496767 50.7213547,113.991293 50.3420287,114.887012 L49.8804672,115.928195 C47.740949,120.642618 40.7095672,135.189032 28.7863217,159.567436 L29.3205937,159.925041 C33.1755303,162.444474 38.0738128,164.50666 44.0154413,166.111598 L44.0154413,167.711598 L28.8154411,167.711598 L23.615441,166.911598 L23.615441,167.711598 L19.615441,167.711598 L20.015441,159.311598 L20.7723549,159.311085 L23.3572613,152.276377 C31.6737198,129.583297 35.9898837,117.168089 36.3057529,115.030754 L36.3724803,114.514864 C36.7122459,111.61322 37.4775449,101.479252 37.9125165,84.1129588 L28.8154411,84.1115961 C29.2513083,77.5367363 30.6489017,70.5835682 32.5631533,63.8041201 L31.7884539,65.1945072 C25.888815,75.7282778 20.9028051,83.3671975 16.830419,88.1115961 L15.769193,87.9044702 L15.4171948,88.5231953 C15.296641,88.7316754 15.2087272,88.8785029 15.1534537,88.9636778 C13.8075986,91.0375996 15.0633086,94.8384924 15.5271626,96.8400687 C12.6172026,97.517445 13.7648015,93.137599 10.0823033,94.052071 C6.72108979,94.8867587 3.87118601,97.0288646 0.736992059,94.1398929 C0.351661329,93.7847109 0.0695810156,92.6745122 1.38336867,92.1050967 L2.20736044,91.7371416 C5.41403487,90.2664002 9.55583535,87.9465153 10.2763778,86.9988355 C10.3226673,86.9379541 10.3731637,86.8646616 10.427867,86.7789579 L10.4154407,86.8551249 C14.547678,61.2278654 26.5140853,42.3133558 46.3146628,30.1115961 L47.4934407,30.1113805 L49.8907197,23.9048442 L49.8510993,23.9391364 L49.8510993,23.9391364 C47.456346,21.9324018 45.9255004,16.7882234 49.2197245,12.7333542 C50.2812168,10.6594615 52.3884016,9.93324217 54.3862123,9.69360559 C56.0375535,9.29106076 57.6568545,9.47265592 58.9524967,10.0759824 Z" id="Path" fill="#1D2B98" opacity="0.300000012" filter="url(#filter-10)"></path>
                        <g id="Group-3" transform="translate(66.820069, 16.825616) rotate(9.000000) translate(-66.820069, -16.825616) translate(57.820069, 1.325616)">
                            <g id="Head" transform="translate(0.394368, 0.866503)" fill="#FFBA94">
                                <path d="M15.2573368,3.65357322 C17.5752611,7.974022 17.2998314,18.9331986 14.3041208,19.7053833 C13.1095226,20.0133071 10.5647717,19.2590946 7.97471544,17.6980641 L9.60000014,29.2000004 L0,29.2000004 L3.30465099,13.7957474 C1.46162908,11.6323025 0.21426367,8.98101203 0.42271054,6.01018165 C1.0233321,-2.55000827 12.9394125,-0.666875553 15.2573368,3.65357322 Z" id="Head-[skin]"></path>
                            </g>
                            <path d="M10.3464159,0.240271942 C13.039977,0.471308916 15.4451979,1.29264873 16.1268568,1.78042222 C16.1268568,4.33051197 15.6327407,5.08711612 11.4123148,5.02042427 C10.3750193,5.56823973 9.57766097,6.51167965 8.74706986,7.74857533 C9.11507438,12.866186 10.0871607,15.4259211 11.6639091,15.4259211 C14.0290317,15.4259211 16.0356702,13.9244614 17.0734292,13.9244614 C17.8299203,13.9244614 17.6610191,14.8711399 17.1595772,15.5730347 C16.7458715,16.1521205 14.7311595,16.71029 14.7311595,17.6080675 C14.7311595,18.5058449 16.3229491,17.811284 16.3229491,18.3437383 C16.3229491,19.2244826 16.6027038,20.8804395 15.0740823,20.8804395 C13.5270663,20.8804395 9.0914975,20.3166772 8.33136115,18.0206325 C7.84084648,16.5389989 7.52367403,13.4689553 7.3798438,8.8105016 C7.28596198,8.79778084 7.19044724,8.79204355 7.09359248,8.79204355 C5.76810906,8.79204355 4.69359244,9.86656017 4.69359244,11.1920436 C4.69359244,11.8649309 4.97050919,12.4731409 5.41659846,12.9089292 C4.86127099,13.6927701 4.23890821,14.5115969 3.52574693,15.3565197 C0.846554533,13.7491133 -1.47017064,8.90774531 1.14917479,4.38746806 C1.87317012,2.17305451 3.84080627,1.12613977 5.77653317,0.576927071 C7.34457174,-0.0789884428 8.97234416,-0.152943498 10.3464159,0.240271942 Z" id="Hair" fill="#543A67"></path>
                        </g>
                        <g id="Group-5" transform="translate(53.600001, 64.000001)">
                            <mask id="mask-13" fill="white">
                                <use xlink:href="#path-12"></use>
                            </mask>
                            <use id="Leg" fill="url(#linearGradient-11)" xlink:href="#path-12"></use>
                            <polygon id="Path-46" fill="#000000" opacity="0.200000003" mask="url(#mask-13)" points="13.8208082 51.1630718 16.0000002 16.2000002 5.61187847 19.2464021"></polygon>
                        </g>
                        <path d="M49.7217374,64.000001 C49.3863079,90.2296911 48.2424995,104.536077 47.8903122,106.919158 C47.538125,109.30224 42.2128692,124.462521 31.9145448,152.400002 L39.9090591,152.400002 C53.0196139,125.598763 60.338261,110.438481 61.8650005,106.919158 C63.3917399,103.399835 68.1034067,89.0934495 75.2000009,64.000001 L49.7217374,64.000001 Z" id="Leg" fill="url(#linearGradient-14)"></path>
                        <polygon id="Path-10" fill="url(#linearGradient-15)" transform="translate(122.477946, 32.887509) rotate(-31.000000) translate(-122.477946, -32.887509) " points="98.9868642 29.1600016 113.960692 52.8237179 145.969029 37.7261369 132.465175 12.951301"></polygon>
                        <path d="M31.8033134,54.8000008 L40,56.4263387 C31.7568332,71.7884246 27.3361708,79.9303391 26.738013,80.8520821 C25.392158,82.9260038 26.6478679,86.7268966 27.1117219,88.7284729 C24.2017619,89.4058492 25.3493608,85.0260033 21.6668626,85.9404753 C18.3056491,86.7751629 15.4557453,88.9172688 12.3215514,86.0282972 C11.9362206,85.6731151 11.6541403,84.5629165 12.967928,83.9935009 C16.2410521,82.5748791 21.0768174,79.9185384 21.8609371,78.8872398 C22.9302245,77.4808799 26.2443499,69.4518002 31.8033134,54.8000008 Z M112.875269,42.502068 C111.586495,44.3844559 110.315557,46.4224063 110.830517,47.0821192 C111.345477,47.7418321 112.837204,47.0136887 113.426539,48.0865113 C113.81943,48.8017264 111.304916,49.6572729 105.882998,50.6531511 L95.0279773,58.9757156 L90.4000012,53.0468358 L104.893828,46.6816703 C107.432809,44.1516095 109.884556,42.2286463 112.249071,40.9127807 C112.956106,40.6876844 114.164042,40.6196801 112.875269,42.502068 Z" id="Arms-[skin]" fill="#FFBA94"></path>
                        <path d="M60.5120995,25.9508725 L63.9060801,25.0584042 C72.0480551,31.6820304 76.6409475,48.9046695 81.8450689,50.7822593 C86.765355,52.5574445 93.2834385,49.8528046 101.001267,46.2956135 L103.918422,51.5341379 C97.3639317,60.0000107 82.5194457,67.9666189 75.9371771,64.7359245 C65.4134977,59.5707157 61.2187222,38.2005638 60.5120995,25.9508725 Z" id="Coat-Back" fill="url(#linearGradient-16)" transform="translate(82.215261, 45.264708) rotate(5.000000) translate(-82.215261, -45.264708) "></path>
                        <path d="M47.2000005,67.600001 C61.0687031,67.600001 71.27023,67.600001 77.8045813,67.600001 C79.2030545,67.600001 78.9395389,65.5806558 78.7373811,64.5616832 C76.4042361,52.8015073 67.2965225,40.1246068 67.2965225,23.3842925 L58.4687207,22.0000003 C51.1669946,33.7433632 48.6419311,48.2018207 47.2000005,67.600001 Z" id="Shirt" fill="#FFFFFF"></path>
                        <g id="Group-4" transform="translate(22.000000, 22.000000)">
                            <mask id="mask-19" fill="white">
                                <use xlink:href="#path-18"></use>
                            </mask>
                            <use id="Coat-Front" fill="url(#linearGradient-17)" xlink:href="#path-18"></use>
                            <polygon id="Path-45" fill="#000000" opacity="0.200000003" mask="url(#mask-19)" points="21.1660807 35.6015148 28.3822597 21.9013507 25.2000004 57.2187342 13.7578267 56.38805"></polygon>
                        </g>
                    </g>
                    <g id="boy" transform="translate(162.672688, 166.156149) rotate(11.000000) translate(-162.672688, -166.156149) translate(105.672688, 79.156149)">
                        <path d="M51.4831753,12.5070169 C52.6557071,14.45346 52.7525522,16.5124064 50.8590769,18.1750955 C54.5544918,21.5161912 58.2096902,31.421966 55.7695391,33.2245608 C54.7772772,33.9575671 52.1352923,34.211554 49.1490616,33.7344438 L50.9678181,36.8780169 L54.9883406,37.5086543 C54.9883406,38.0518205 54.9979291,38.5907088 55.0165634,39.1254267 C66.7266648,50.5339866 72.1985298,70.5251787 87.2636191,81.3302696 L86.9928181,81.6650169 L87.9636097,82.3783965 C91.4241969,83.3121878 94.3154057,84.4739819 96.637236,85.8637787 C97.1856926,86.3635408 97.848554,87.3756419 95.5739717,87.2007255 L95.102299,87.1661168 C92.9782257,87.0186201 90.8773587,86.9976248 90.5851552,87.7199445 C90.2713071,88.4957693 91.6477611,89.4235708 91.0133373,90.4703616 C90.5903881,91.1682222 88.5922061,89.4183627 85.0187914,85.2207831 L84.3488181,84.9420169 L83.4774201,86.0234113 C76.6133246,85.1735328 71.0478118,82.893869 66.5705755,79.6645018 C66.6493464,80.5989337 66.5312627,81.626307 65.6304716,81.7177739 L65.4963994,81.7243628 L64.2381536,81.7255378 L66.6491285,83.7741031 C85.5555314,99.9093505 95.308432,109.965995 95.9078303,113.944036 C96.8863855,120.438437 91.6518119,133.054477 78.3061449,148.388628 L77.44326,149.371062 L76.641307,149.078272 L75.5309329,150.859776 L75.5309329,150.859776 L74.2198181,152.952017 L74.4436827,152.934697 L75.6440444,151.620536 C75.7783885,151.481553 75.9890603,151.460889 76.1460385,151.560752 L76.2096484,151.610936 L84.4644268,159.590157 L84.9884347,159.871599 C85.6336193,160.215025 86.3972512,160.61122 87.2793304,161.060186 C88.4134323,161.637427 88.3735736,162.736443 87.1597545,164.357235 L65.9596075,156.641013 L65.9596075,156.641013 L66.0833076,155.979087 C66.2894217,154.92482 66.4952722,154.115263 66.7008589,153.550418 C66.8880978,153.035984 67.34214,152.345941 68.0629856,151.480289 L68.2487554,151.260217 C68.2611325,151.245744 68.2740224,151.231718 68.2874006,151.218164 C68.5695765,150.932294 69.0138584,150.903583 69.3285615,151.133929 L69.4187933,151.210806 L69.6208957,151.406719 C69.7171359,151.498218 69.8114744,151.585309 69.9039114,151.667991 L71.7910834,147.313092 L71.7910834,147.313092 L70.8119891,146.957145 L71.1174861,145.853229 C75.8681252,128.910306 81.2888892,119.772141 80.7249891,118.821148 C80.3729203,118.227399 64.1479104,111.681635 51.3999291,101.476319 C41.0944921,122.303266 24.6259971,146.839377 16.5576675,158.689731 L13.5520927,163.09752 L10.0738181,162.445017 L8.33481812,165.482017 L8.3638153,165.491917 L18.8498241,170.166632 L20.0905106,170.341573 C20.6602602,170.418169 21.2960058,170.499396 21.9977476,170.585253 C23.2140999,170.734073 23.5729762,171.709882 23.0743765,173.512679 L23.0130404,173.724364 L0.45231517,173.724364 C0.211983803,172.340524 0.0918181193,171.287947 0.0918181193,170.566632 C0.0918181193,170.019183 0.282469582,169.215462 0.663772509,168.155472 L0.773565199,167.858573 L0.785001711,167.832401 C0.953781756,167.464218 1.36686678,167.285359 1.74391822,167.399928 L1.84564641,167.438527 L2.14312463,167.571106 L2.14312463,167.571106 L5.07781812,161.508017 L2.88723769,161.09752 C8.03323337,153.029258 15.3678508,127.131502 23.3654222,105.513899 C23.0324916,105.541037 22.6507704,105.645696 22.206986,105.85216 C19.0659068,107.313502 16.6764956,109.961355 13.0474324,107.722112 C12.6012604,107.44681 12.1123286,106.410249 13.2936497,105.600231 C16.2367513,103.582182 20.477939,100.050232 21.0509903,98.8876634 C21.0981435,98.7920022 21.1487187,98.6710981 21.2027159,98.5249513 L20.8918184,98.5243631 C20.2740735,78.5506105 25.0230172,61.5979274 35.1386495,47.666314 C33.8560878,47.2993871 32.8404851,46.4397345 32.0918181,45.0888384 C28.8652413,39.2667925 30.0305094,36.061325 33.4786972,35.0076698 C36.621491,34.0473331 39.4543247,35.7652111 44.091089,36.0770369 L43.4828181,32.5880169 L43.4082432,32.5758075 C40.6664102,32.0451616 37.5882472,29.0931509 37.5253565,24.8071366 C37.3327234,23.8595897 37.3430155,22.9945202 37.5148652,22.2118661 C37.5048667,14.3132152 49.9184306,14.6996568 51.4831753,12.5070169 Z" id="Path" fill="#1D2B98" opacity="0.300000012" filter="url(#filter-20)"></path>
                        <g id="Group" transform="translate(57.249335, 18.532484) rotate(-22.000000) translate(-57.249335, -18.532484) translate(47.749335, 2.532484)">
                            <g id="Head" transform="translate(0.044449, 1.454350)" fill="#FFBA94">
                                <path d="M15.2573368,3.65357322 C17.5752611,7.974022 17.2998314,18.9331986 14.3041208,19.7053833 C13.1095226,20.0133071 10.5647717,19.2590946 7.97471544,17.6980641 L9.60000014,29.2000004 L0,29.2000004 L3.30465099,13.7957474 C1.46162908,11.6323025 0.21426367,8.98101203 0.42271054,6.01018165 C1.0233321,-2.55000827 12.9394125,-0.666875553 15.2573368,3.65357322 Z" id="Head-[skin]"></path>
                            </g>
                            <path d="M1.17733193,5.27424509 C3.36486363,-3.72193249 15.7519501,1.86263228 18.1352512,0.34506126 C18.6561045,3.60975667 16.976639,6.24230352 11.0722005,5.73488204 C9.76674683,6.46087638 8.83895219,7.82728078 7.72187734,9.6200879 C7.45035682,9.51305238 7.15425835,9.4543504 6.8444493,9.4543504 C5.51896588,9.4543504 4.44444926,10.528867 4.44444926,11.8543504 C4.44444926,12.5269544 4.72113282,13.1349354 5.16689177,13.5706854 C4.61271218,14.3543081 3.99009985,15.1735071 3.27660375,16.0188266 C0.626566866,14.4289123 -1.34734983,9.80798404 1.14476275,5.33329496 Z" id="Hair" fill="#543A67"></path>
                        </g>
                        <path d="M80.9878099,62.5366402 C73.3378849,68.7736515 76.2481294,123.457702 75.7375182,124.146174 C75.5105798,124.452162 63.3872964,127.055847 39.367668,131.957229 L40.4044484,136.189628 C68.5012967,134.79517 83.3685056,133.055182 85.006075,130.969663 C87.3506055,127.983798 90.2483201,111.284883 93.6992188,80.8729185 L80.9878099,62.5366402 Z" id="leg-[skin]" fill="#B28B67" transform="translate(66.533443, 99.363134) rotate(-55.000000) translate(-66.533443, -99.363134) "></path>
                        <path d="M80.9878099,62.5366402 C73.3378849,68.7736515 76.2481294,123.457702 75.7375182,124.146174 C75.5105798,124.452162 63.3872964,127.055847 39.367668,131.957229 L40.4044484,136.189628 C68.5012967,134.79517 83.3685056,133.055182 85.006075,130.969663 C87.3506055,127.983798 90.2483201,111.284883 93.6992188,80.8729185 L80.9878099,62.5366402 Z" id="shadow" fill="#FFBA94" transform="translate(66.533443, 99.363134) rotate(-55.000000) translate(-66.533443, -99.363134) "></path>
                        <path d="M43.4160356,127.503126 L45.2422113,134.319711 C66.186256,136.724614 79.9933018,133.747826 84.8531749,129.124894 C88.0930903,126.042939 90.998267,109.389409 93.568705,79.1643021 L79.970564,59.7441441 C61.7604175,73.4825303 72.6149246,118.456183 72.1495589,119.485235 C71.6841932,120.514287 60.638843,121.327985 43.4160356,127.503126 Z" id="Pant" fill="url(#linearGradient-21)" transform="translate(68.492370, 97.458648) rotate(-55.000000) translate(-68.492370, -97.458648) "></path>
                        <polygon id="leg-[skin]" fill="#FFBA94" points="50.0000006 66.400001 29.3016154 116.090765 8.95832427 158.100118 13.7579651 158.100118 66.269476 66.400001"></polygon>
                        <path d="M10.7954196,149.373158 L21.4602746,151.373158 C29.7063105,139.249952 64.2163077,89.540737 68.0000009,66.400001 L44.2576298,66.400001 C31.6219526,83.12841 18.6555948,137.049411 10.7954196,149.373158 Z" id="Pant" fill="url(#linearGradient-22)"></path>
                        <path d="M34.1231716,61.6079575 L42.4821285,61.6408294 C37.3208583,78.3022968 34.5345394,87.142767 34.1231716,88.1622401 C33.1975942,90.4560545 35.1562405,93.9494941 35.9938354,95.8268425 C33.2658167,97.0475495 33.55649,92.5267729 30.1151679,94.1277983 C26.9740887,95.58914 24.5846775,98.2369934 20.9556143,95.99775 C20.5094423,95.7224482 20.0205105,94.6858872 21.2018315,93.8758695 C24.1449332,91.8578202 28.3861209,88.3258703 28.9591722,87.1633016 C29.7406299,85.5779316 31.4619631,77.0594835 34.1231716,61.6079575 L34.1231716,61.6079575 Z M83.112483,61.2845951 L95.8717916,70.6540347 C99.3323788,71.587826 102.223588,72.7496201 104.545418,74.1394169 C105.093874,74.639179 105.756736,75.6512801 103.482154,75.4763637 L103.010481,75.441755 C100.886408,75.2942583 98.7855406,75.273263 98.4933371,75.9955827 C98.179489,76.7714075 99.555943,77.699209 98.9215191,78.7459999 C98.4985699,79.4438604 96.500388,77.6940009 92.9269732,73.4964213 L80.2919106,68.2569799 L83.112483,61.2845951 Z" id="Arms-[skin]" fill="#FFBA94"></path>
                        <path d="M55.8926943,28.2321247 L59.2866749,27.3396564 C73.037401,37.2651351 80.1446848,58.0225372 96.7986504,67.890945 L93.4358933,72.8962168 C65.9556962,71.9086575 56.9533264,46.6187614 55.8926943,28.2321247 Z" id="Coat-Back" fill="#FFFFFF" transform="translate(76.345672, 50.117937) rotate(5.000000) translate(-76.345672, -50.117937) "></path>
                        <path d="M42.8000005,70.000001 C56.6687031,70.000001 66.87023,70.000001 73.4045813,70.000001 C74.8030545,70.000001 74.5395389,67.9806559 74.3373811,66.9616832 C72.004236,55.2015073 62.8965225,42.5246068 62.8965225,25.7842925 L54.0687207,24.4000004 C46.7669946,36.1433633 44.2419311,50.6018207 42.8000005,70.000001 Z" id="Shirt" fill="#FE815F"></path>
                        <path d="M53.4040132,24.4000004 C53.7037264,24.4000004 53.9781547,24.4188453 54.2272981,24.4565353 L56.9886356,24.6138963 C64.9175952,51.4860785 67.104355,69.4147799 63.5489149,78.4000004 L63.5489149,78.4000004 L39.460322,78.4009434 C38.0332687,81.7284782 36.6676939,84.5281641 35.3635974,86.8000013 L35.3635974,86.8000013 L28.8000003,86.8000013 C28.1822554,66.8262487 32.9311991,49.8735656 43.0468314,35.9419522 C41.7642697,35.5750253 40.748667,34.7153727 40.0000005,33.3644766 C36.7734232,27.5424307 37.9386913,24.3369632 41.3868791,23.283308 C44.8350669,22.2296527 47.9101283,24.4000004 53.4040132,24.4000004 Z" id="Coat-Front" fill="#FFFFFF"></path>
                        <path d="M48.4000006,78.4000012 L39.4606959,78.4000716 C41.1254758,74.5181389 42.8739218,69.9178559 44.7060339,64.5992227 C45.4635382,70.9371522 46.6948788,75.5377835 48.4000006,78.4000012 Z" id="Shade" fill-opacity="0.1" fill="#000000"></path>
                    </g>
                    <g id="girl" transform="translate(362.672688, 140.866314) scale(-1, 1) rotate(24.000000) translate(-362.672688, -140.866314) translate(312.672688, 53.866314)">
                        <path d="M46.5942356,9.87589129 C47.2065294,11.0775856 47.1533121,12.4434045 46.5710753,13.5532697 C46.8786828,13.6794498 47.162358,13.8299362 47.4163988,14.0064098 C51.4431272,16.8036423 56.1730797,26.6933826 53.8544464,28.7414284 C52.9298461,29.5581267 50.3200512,30.0414112 47.3036012,29.8263838 L51.7404382,36.1534716 L55.5128035,36.2751252 C64.1351536,36.5348985 75.5970191,36.5693739 88.3718923,32.4680885 L88.4917195,33.0700011 L90.5468298,32.4530503 C93.375222,30.2512721 96.0430449,28.6414352 98.5502984,27.6235397 L98.6832924,27.6018588 C99.3893482,27.5044529 100.336611,27.6565896 99.1042858,29.1304966 L98.6666437,29.6331615 C97.2705484,31.2407562 95.9894475,32.9059479 96.3904652,33.5740148 C96.8211879,34.2915681 98.3905338,33.7506479 98.8447324,34.8872958 C99.1475314,35.645061 96.5474955,36.1877883 91.0446247,36.5154777 L89.3777195,37.4950011 L90.0028222,40.6174808 C81.3107214,46.2078084 72.5424718,50.9210779 64.2789952,52.9709119 C70.0462548,59.5601267 77.1168077,65.5676833 85.7890889,71.7144363 L85.4427195,72.1040011 L86.8048726,73.1047787 C90.2654598,74.03857 93.1566685,75.2003641 95.4784989,76.5901609 L95.5758517,76.6833267 C96.094775,77.2048864 96.5560179,78.0917349 94.4152345,77.9271077 L93.7077399,77.8766624 C91.6663498,77.7444667 89.7077992,77.7507596 89.4264181,78.4463267 C89.1125699,79.2221515 90.4890239,80.149953 89.8546001,81.1967438 C89.4316509,81.8946044 87.4334689,80.1447449 83.8600542,75.9471653 L82.5257195,75.3940011 L80.2737389,77.9332017 L77.9886305,77.0797829 C71.2897851,74.5618013 65.9894235,72.3916553 61.8220299,69.6881299 C62.8431118,73.0744294 63.9775574,76.6828288 65.2251499,80.512538 L65.6028218,81.6680893 L62.6547195,81.6680011 L65.1509489,103.139898 L63.6797195,103.139001 L69.0327195,166.397001 L69.3466086,165.638113 C69.4253156,165.461563 69.6162149,165.370092 69.7978812,165.410242 L69.8748189,165.435644 L80.3608277,170.110359 L81.6015142,170.285299 C82.1712638,170.361896 82.8070094,170.443122 83.5087512,170.52898 C84.7251036,170.677799 85.0839799,171.653608 84.5853801,173.456405 L84.524044,173.668091 L61.9633188,173.668091 C61.7229874,172.284251 61.6028217,171.231673 61.6028217,170.510359 C61.6028217,169.962909 61.7934732,169.159189 62.1747761,168.099199 L62.2740738,167.828862 C62.2807543,167.811029 62.2880695,167.793439 62.2960053,167.776128 C62.4618347,167.414381 62.8635015,167.235397 63.2351149,167.337914 L56.2551567,127.277758 L51.0456744,110.24712 L50.3602089,113.01389 C49.2009194,117.636575 48.3579807,120.680493 47.8313929,122.145643 L47.5627021,122.897255 C46.0391333,127.31304 41.9485002,141.324954 31.0663282,167.043124 L30.9397195,167.341001 L31.0681065,167.283569 L31.7466081,165.638113 C31.825315,165.461563 32.0162144,165.370092 32.1978807,165.410242 L32.2748184,165.435644 L42.7608272,170.110359 L44.0015137,170.285299 C44.5712632,170.361896 45.2070089,170.443122 45.9087506,170.52898 C47.125103,170.677799 47.4839793,171.653608 46.9853795,173.456405 L46.9240434,173.668091 L24.3633182,173.668091 C24.1229869,172.284251 24.0028212,171.231673 24.0028212,170.510359 C24.0028212,169.962909 24.1934726,169.159189 24.5747756,168.099199 L24.6740732,167.828862 C24.6807537,167.811029 24.6880689,167.793439 24.6960048,167.776128 C24.8079678,167.531887 25.0274384,167.37096 25.2725808,167.323736 L26.2861231,163.163575 C32.3205442,138.260489 35.0244893,124.619305 35.3808565,121.727043 L35.4971359,120.466287 C35.700419,118.011067 36.0904903,112.31406 36.196663,103.139923 L34.4028213,103.139898 C33.8740695,98.9278105 33.6250023,95.0510271 33.6556196,91.5095474 L31.343272,91.5104759 C28.7643003,74.1786209 35.4372076,50.2228398 41.7308099,37.8364799 L41.9452035,37.4187263 C42.1504187,37.0228748 42.5515683,36.3307174 43.4064301,36.1264252 L42.255823,31.7946036 C42.1379164,31.8842182 42.0139444,31.9626083 41.8838256,32.0289072 C39.1000661,33.4473035 35.2243821,30.7340074 33.1854724,26.7324219 C33.1138591,26.5918728 33.045506,26.4508399 32.980393,26.3094692 C31.0652606,29.8297033 30.8255574,34.969793 26.9289061,36.9552361 C21.627946,39.6562101 14.0748277,30.0368013 21.4810201,26.2631578 C26.5180385,23.6966687 29.3698053,23.1687237 32.0584092,23.166797 C31.874195,21.7649187 32.0078042,20.4393728 32.4379949,19.3421258 C32.5187529,19.031822 32.7068358,18.6778107 32.987818,18.2955012 C33.0954678,18.138156 33.2114859,17.9892304 33.3357814,17.8492822 L33.5284211,17.6461628 C34.5741342,16.515997 36.2721702,15.2287312 38.3230096,14.0919324 C38.7054156,13.8799613 39.0857579,13.681165 39.4613229,13.4961352 C38.466343,11.5299747 39.2497673,9.12877983 41.2142475,8.12782719 C43.1826048,7.12489903 45.5913075,7.90753405 46.5942356,9.87589129 Z" id="Path" fill="#1D2B98" opacity="0.300000012" filter="url(#filter-23)"></path>
                        <g id="Group-6" transform="translate(24.194974, 24.645028) rotate(-27.000000) translate(-24.194974, -24.645028) translate(6.194974, 7.145028)">
                            <g id="Head" transform="translate(18.800000, 4.400000)" fill="url(#linearGradient-24)">
                                <path d="M15.2573368,3.65357322 C17.5752611,7.974022 17.2998314,18.9331986 14.3041208,19.7053833 C13.1095226,20.0133071 10.5647717,19.2590946 7.97471544,17.6980641 L9.60000014,29.2000004 L0,29.2000004 L3.30465099,13.7957474 C1.46162908,11.6323025 0.21426367,8.98101203 0.42271054,6.01018165 C1.0233321,-2.55000827 12.9394125,-0.666875553 15.2573368,3.65357322 Z" id="Head-[skin]"></path>
                            </g>
                            <path d="M31.2000004,-5.68434197e-15 C33.4091395,-5.68434197e-15 35.2000004,1.79086103 35.2000004,4 C35.2000004,6.13709825 33.5240363,7.88275392 31.4147409,7.9943342 C30.2095702,8.36657867 28.6601816,8.63970818 26.941985,8.75487915 C27.1092142,9.38142727 27.2000004,10.0946209 27.2000004,10.9006251 C27.2000004,11.6121882 27.1214288,12.3668583 26.9767569,13.1331133 C26.6045151,12.6892725 26.1059918,12.4000002 25.6000004,12.4000002 C24.1849739,12.4000002 23.2000003,13.5640599 23.2000003,14.8000002 C23.2000003,16.3682106 24.1051039,17.5028043 25.4264995,17.5940636 C24.2370483,19.879193 22.5906031,21.6000003 20.9457356,21.6000003 C17.8214493,21.6000003 15.6000002,17.422912 15.6000002,12.9318277 C15.6000002,12.7740858 15.6031247,12.6173929 15.6092896,12.4618699 C12.3047413,14.7289696 9.75761229,19.2000001 5.38429828,19.2000001 C-0.565108345,19.2000001 -2.92786574,7.20000011 5.38429828,7.20000011 C11.0374762,7.20000011 13.818101,8.02427269 16.2145394,9.24315665 C16.6868427,7.91044248 17.4076746,6.79002967 18.289117,6.00767796 C18.501948,5.76785854 18.8302488,5.5378201 19.2541707,5.32474302 C19.5051954,5.18775768 19.7643965,5.07619961 20.030645,4.99160693 C21.4754668,4.45936565 23.5728344,4.08329566 25.9162415,4.00146208 C26.3532006,3.98620313 26.7823397,3.98174615 27.2009724,3.98738639 C27.2070569,1.78381307 28.9952128,-5.68434197e-15 31.2000004,-5.68434197e-15 Z" id="hair" fill="#543A67"></path>
                        </g>
                        <polygon id="[skin]-Leg" fill="#B28B67" points="28.0000004 73.0000011 43.0523357 122.20967 50.3440624 164.059324 56.0612796 164.059324 48.3563903 73.0000011"></polygon>
                        <polygon id="Shadow" fill="url(#linearGradient-25)" points="28.0000004 73.0000011 43.0523357 122.20967 50.3440624 164.059324 56.0612796 164.059324 48.3563903 73.0000011"></polygon>
                        <path d="M22.6150913,73.0000011 C23.6374823,100.018754 22.4342662,113.955517 22.2054428,116.410288 C21.9766195,118.865059 18.8432788,134.781927 11.4254751,164.88339 L17.5175972,162.791082 C29.2407443,135.183585 33.2355748,120.835482 34.580131,117.210288 C35.9246873,113.585094 39.4957618,98.8483314 45.2933548,73.0000011 L22.6150913,73.0000011 Z" id="[skin]-Leg" fill="url(#linearGradient-26)"></path>
                        <polygon id="Bottom" fill="url(#linearGradient-27)" points="26.0000004 73.0000011 32.4000005 98.0718095 51.9481279 98.0718095 49.0334225 73.0000011"></polygon>
                        <path d="M22.4000003,73.0000011 C20.294176,79.3122196 19.894176,87.6694891 21.2000003,98.0718095 L41.1481278,98.0718095 L46.6334225,73.0000011 L22.4000003,73.0000011 Z" id="Bottom" fill="url(#linearGradient-28)"></path>
                        <path d="M60.842743,58.6672509 L73.6020516,68.0366905 C77.0626388,68.9704818 79.9538475,70.1322759 82.2756779,71.5220728 C82.8241344,72.0218348 83.4869958,73.0339359 81.2124135,72.8590195 C78.9378312,72.6841031 76.5374452,72.6024137 76.2235971,73.3782385 C75.9097489,74.1540634 77.2862029,75.0818648 76.6517791,76.1286557 C76.2288299,76.8265163 74.2306479,75.0766568 70.6572332,70.8790771 L58.0221705,65.6396357 L60.842743,58.6672509 Z M85.7753221,24.2092069 L85.4638227,24.5650733 C84.0677273,26.172668 82.7866265,27.8378597 83.1876442,28.5059266 C83.6183669,29.2234799 85.1877128,28.6825598 85.6419114,29.8192076 C85.9447104,30.5769729 83.3446745,31.1197002 77.8418037,31.4473896 L66.0534292,38.3850247 L62.182498,31.9363295 L77.3440088,27.3849621 C80.172401,25.1831839 82.8402239,23.5733471 85.3474774,22.5554516 C86.0766745,22.418199 87.2838944,22.497912 85.7753221,24.2092069 Z" id="Arms-[skin]" fill="url(#linearGradient-29)"></path>
                        <path d="M36.3939749,37.2599697 C46.4587192,47.9759814 58.7343247,54.9686515 75.4763081,61.1711054 L71.758424,68.6054491 C54.4845461,66.9767695 45.2496203,65.6760059 38.0099484,54.9434656 C36.1929375,52.2498155 32.9440143,42.9814714 30.9976703,38.1684062 L36.3939749,37.2599697 Z" id="Coat-Back" fill="url(#linearGradient-30)" transform="translate(53.236989, 52.932709) rotate(15.000000) translate(-53.236989, -52.932709) "></path>
                        <path d="M21.6000003,76.6000011 L52.4000008,76.6000011 C45.423285,55.3221532 41.8593137,40.7183612 41.7080869,32.7886251 C41.7003772,32.3843595 40.953752,31.6719863 40.6234287,31.7652779 C38.2078099,32.4475094 35.6229072,32.1924169 32.8687205,31.0000004 C25.5669944,42.7433634 23.0419309,57.2018208 21.6000003,76.6000011 Z" id="Shirt" fill="#F2F2F2"></path>
                        <path d="M75.1690713,27.4000004 L76.8000011,35.5493927 C64.3146141,43.5793737 51.6721119,49.7997534 40.594163,48.9162754 C45.4049819,69.5505746 45.1832758,86.4423877 34.5629894,86.4423877 L34.5629894,86.4423877 L18.140451,86.4423877 C15.5321728,68.9135798 22.3872383,44.6094467 28.7423825,32.3506382 C28.9850663,31.8825112 29.5017645,31.0000004 30.7188007,31.0000004 L30.7188007,31.0000004 L35.4907059,31.0000004 C35.4928098,31.0063352 35.4949134,31.0126699 35.4970166,31.0190047 C44.3244773,31.0911154 58.6488984,32.7036886 75.1690713,27.4000004 Z" id="Coat-Front" fill="url(#linearGradient-31)"></path>
                    </g>
                </g>
            </g>
        </g>
    </g>
</svg>